<svg width="53" height="45" viewBox="0 0 53 45" fill="none" xmlns="http://www.w3.org/2000/svg">
<path id="Icon" d="M16.0086 1C7.90436 1 1 7.16621 1 15.1746C1 20.6992 3.54227 25.3504 6.9116 29.2033C10.2694 33.043 14.6014 36.266 18.5177 38.9635L25.2748 43.6177C26.0148 44.1274 26.9852 44.1274 27.7252 43.6177L34.4823 38.9635C38.3986 36.266 42.7306 33.043 46.0884 29.2033C49.4577 25.3504 52 20.6992 52 15.1746C52 7.16621 45.0956 1 36.9914 1C32.8139 1 29.1379 2.99324 26.5 5.57233C23.8621 2.99324 20.1861 1 16.0086 1Z" fill="#E86F6F" stroke="#FF5E5E" stroke-opacity="0.5" stroke-linecap="round" stroke-linejoin="round"/>
</svg>
