<svg width="35" height="35" viewBox="0 0 35 35" fill="none" xmlns="http://www.w3.org/2000/svg">
<path id="Icon" d="M17.538 0C7.85204 0 0 7.83502 0 17.5C0 27.165 7.85204 35 17.538 35C26.6529 35 34.1427 28.0624 34.9953 19.1898C35.0349 18.7768 34.8223 18.3805 34.456 18.1844C34.0896 17.9883 33.6411 18.0308 33.3183 18.2922C31.5445 19.7284 29.2857 20.5882 26.8229 20.5882C21.1252 20.5882 16.5064 15.9794 16.5064 10.2941C16.5064 6.91743 18.1346 3.92048 20.6548 2.04167C20.988 1.79325 21.1391 1.36946 21.0381 0.966849C20.937 0.564243 20.6035 0.261588 20.1923 0.199262C19.3261 0.0679862 18.4397 0 17.538 0Z" fill="#E0E0E0"/>
</svg>
