<svg width="48" height="44" viewBox="0 0 48 44" fill="none" xmlns="http://www.w3.org/2000/svg">
<g id="Icon">
<path fill-rule="evenodd" clip-rule="evenodd" d="M46.9938 17.5996L47 26.3172C46.9389 27.1477 46.86 27.9772 46.7636 28.8052C46.6022 30.1898 45.4809 31.3067 44.0727 31.4646C39.6622 31.9594 35.0981 31.9594 30.6876 31.4646C29.2794 31.3067 28.158 30.1898 27.9967 28.8052C27.4698 24.2838 27.4698 19.7162 27.9967 15.1948C28.158 13.8102 29.2794 12.6933 30.6876 12.5353C35.0981 12.0406 39.6622 12.0406 44.0727 12.5353C45.4809 12.6933 46.6022 13.8102 46.7636 15.1948C46.8568 15.9951 46.9336 16.7969 46.9938 17.5996ZM37.3801 18.3906C35.3941 18.3906 33.7841 20.0066 33.7841 22C33.7841 23.9934 35.3941 25.6094 37.3801 25.6094C39.3661 25.6094 40.9761 23.9934 40.9761 22C40.9761 20.0066 39.3661 18.3906 37.3801 18.3906Z" fill="#ECB37F"/>
<path d="M45.5397 7.65793C45.9124 8.30584 45.2129 9.03137 44.4721 8.94827C39.7961 8.42371 34.9641 8.42371 30.2882 8.94827C27.2451 9.28965 24.784 11.6948 24.425 14.7755C23.8657 19.5755 23.8657 24.4245 24.425 29.2245C24.784 32.3052 27.2451 34.7103 30.2882 35.0517C34.9641 35.5763 39.7961 35.5763 44.4721 35.0517C45.2178 34.9681 45.9231 35.6986 45.5467 36.3502C43.6802 39.5814 40.3525 41.8365 36.4855 42.245L34.9227 42.41C26.9855 43.2484 18.9798 43.1931 11.0548 42.2452L10.0193 42.1213C5.74694 41.6103 2.36179 38.26 1.79273 33.9793C0.735757 26.0283 0.735757 17.9717 1.79273 10.0207C2.36179 5.74004 5.74694 2.38966 10.0193 1.87865L11.0548 1.7548C18.9798 0.806904 26.9855 0.751619 34.9228 1.58997L36.4855 1.75504C40.3557 2.16382 43.6782 4.42237 45.5397 7.65793Z" fill="#ECB37F"/>
<path fill-rule="evenodd" clip-rule="evenodd" d="M46.9938 17.5996L47 26.3172C46.9389 27.1477 46.86 27.9772 46.7636 28.8052C46.6022 30.1898 45.4809 31.3067 44.0727 31.4646C39.6622 31.9594 35.0981 31.9594 30.6876 31.4646C29.2794 31.3067 28.158 30.1898 27.9967 28.8052C27.4698 24.2838 27.4698 19.7162 27.9967 15.1948C28.158 13.8102 29.2794 12.6933 30.6876 12.5353C35.0981 12.0406 39.6622 12.0406 44.0727 12.5353C45.4809 12.6933 46.6022 13.8102 46.7636 15.1948C46.8568 15.9951 46.9336 16.7969 46.9938 17.5996ZM37.3801 18.3906C35.3941 18.3906 33.7841 20.0066 33.7841 22C33.7841 23.9934 35.3941 25.6094 37.3801 25.6094C39.3661 25.6094 40.9761 23.9934 40.9761 22C40.9761 20.0066 39.3661 18.3906 37.3801 18.3906Z" stroke="#FFB978" stroke-opacity="0.5" stroke-linejoin="round"/>
<path d="M45.5397 7.65793C45.9124 8.30584 45.2129 9.03137 44.4721 8.94827C39.7961 8.42371 34.9641 8.42371 30.2882 8.94827C27.2451 9.28965 24.784 11.6948 24.425 14.7755C23.8657 19.5755 23.8657 24.4245 24.425 29.2245C24.784 32.3052 27.2451 34.7103 30.2882 35.0517C34.9641 35.5763 39.7961 35.5763 44.4721 35.0517C45.2178 34.9681 45.9231 35.6986 45.5467 36.3502C43.6802 39.5814 40.3525 41.8365 36.4855 42.245L34.9227 42.41C26.9855 43.2484 18.9798 43.1931 11.0548 42.2452L10.0193 42.1213C5.74694 41.6103 2.36179 38.26 1.79273 33.9793C0.735757 26.0283 0.735757 17.9717 1.79273 10.0207C2.36179 5.74004 5.74694 2.38966 10.0193 1.87865L11.0548 1.7548C18.9798 0.806904 26.9855 0.751619 34.9228 1.58997L36.4855 1.75504C40.3557 2.16382 43.6782 4.42237 45.5397 7.65793Z" stroke="#FFB978" stroke-opacity="0.5" stroke-linejoin="round"/>
</g>
</svg>
