<svg width="40" height="40" viewBox="0 0 40 40" fill="none" xmlns="http://www.w3.org/2000/svg">
<g id="Icon">
<path d="M20 0C20.7706 0 21.3953 0.624719 21.3953 1.39535V3.25581C21.3953 4.02644 20.7706 4.65116 20 4.65116C19.2294 4.65116 18.6047 4.02644 18.6047 3.25581V1.39535C18.6047 0.624719 19.2294 0 20 0Z" fill="#565656"/>
<path d="M20 9.30233C14.0918 9.30233 9.30233 14.0918 9.30233 20C9.30233 25.9082 14.0918 30.6977 20 30.6977C25.9082 30.6977 30.6977 25.9082 30.6977 20C30.6977 14.0918 25.9082 9.30233 20 9.30233Z" fill="#565656"/>
<path d="M7.83121 5.85791C7.28629 5.31299 6.40281 5.31299 5.85789 5.85791C5.31297 6.40283 5.31297 7.28631 5.85789 7.83123L7.17344 9.14678C7.71836 9.69169 8.60184 9.69169 9.14676 9.14678C9.69168 8.60186 9.69168 7.71837 9.14676 7.17345L7.83121 5.85791Z" fill="#565656"/>
<path d="M40 20C40 20.7706 39.3753 21.3953 38.6047 21.3953H36.7442C35.9736 21.3953 35.3488 20.7706 35.3488 20C35.3488 19.2294 35.9736 18.6047 36.7442 18.6047H38.6047C39.3753 18.6047 40 19.2294 40 20Z" fill="#565656"/>
<path d="M34.1421 7.83121C34.687 7.28629 34.687 6.40281 34.1421 5.85789C33.5972 5.31297 32.7137 5.31297 32.1688 5.85789L30.8532 7.17344C30.3083 7.71836 30.3083 8.60184 30.8532 9.14676C31.3981 9.69168 32.2816 9.69168 32.8265 9.14676L34.1421 7.83121Z" fill="#565656"/>
<path d="M20 35.3488C20.7706 35.3488 21.3953 35.9736 21.3953 36.7442V38.6047C21.3953 39.3753 20.7706 40 20 40C19.2294 40 18.6047 39.3753 18.6047 38.6047V36.7442C18.6047 35.9736 19.2294 35.3488 20 35.3488Z" fill="#565656"/>
<path d="M32.8267 30.8533C32.2818 30.3083 31.3983 30.3083 30.8534 30.8533C30.3084 31.3982 30.3084 32.2817 30.8534 32.8266L32.1689 34.1421C32.7138 34.687 33.5973 34.687 34.1422 34.1421C34.6871 33.5972 34.6871 32.7137 34.1422 32.1688L32.8267 30.8533Z" fill="#565656"/>
<path d="M4.65116 20C4.65116 20.7706 4.02644 21.3953 3.25581 21.3953H1.39535C0.624719 21.3953 0 20.7706 0 20C0 19.2294 0.624719 18.6047 1.39535 18.6047H3.25581C4.02644 18.6047 4.65116 19.2294 4.65116 20Z" fill="#565656"/>
<path d="M9.14664 32.8266C9.69155 32.2816 9.69155 31.3982 9.14664 30.8532C8.60172 30.3083 7.71823 30.3083 7.17331 30.8532L5.85777 32.1688C5.31285 32.7137 5.31285 33.5972 5.85777 34.1421C6.40268 34.687 7.28617 34.687 7.83109 34.1421L9.14664 32.8266Z" fill="#565656"/>
</g>
</svg>
