<svg width="28" height="27" viewBox="0 0 28 27" fill="none" xmlns="http://www.w3.org/2000/svg">
<g id="buy-button">
<g id="Icon">
<path fill-rule="evenodd" clip-rule="evenodd" d="M25.5023 3.56223H5.82088L4.13926 0.548008C3.9505 0.209678 3.59342 0 3.206 0H1.06867C0.478459 0 0 0.478459 0 1.06867C0 1.65888 0.478459 2.13734 1.06867 2.13734H2.57848L4.23804 5.11201L8.0654 13.5805L8.06933 13.5891L8.40643 14.335L4.56373 18.4339C4.28743 18.7286 4.20094 19.1539 4.34019 19.5332C4.47945 19.9124 4.82065 20.1807 5.22202 20.2265L8.72459 20.6268C13.1057 21.1275 17.5295 21.1275 21.9106 20.6268L25.4132 20.2265C25.9996 20.1595 26.4206 19.6298 26.3536 19.0434C26.2866 18.457 25.7569 18.036 25.1705 18.103L21.6679 18.5033C17.4481 18.9856 13.1871 18.9856 8.96728 18.5033L7.57727 18.3445L10.3977 15.336C10.4249 15.3069 10.4503 15.2767 10.4737 15.2455L11.5464 15.3851C13.0495 15.5807 14.569 15.619 16.0801 15.4995C19.6045 15.2208 22.8709 13.5437 25.1514 10.8421L25.9751 9.8663C26.0028 9.83353 26.0284 9.79912 26.052 9.76327L27.5871 7.42381C28.6752 5.76557 27.4857 3.56223 25.5023 3.56223ZM10.5531 13.1005C10.3174 13.0698 10.1142 12.9201 10.015 12.7044L10.0131 12.7002L6.84908 5.69956H25.5023C25.7856 5.69956 25.9556 6.01432 25.8001 6.25122L24.3003 8.53685L23.5182 9.46344C21.6059 11.7288 18.8669 13.1351 15.9115 13.3688C14.5485 13.4766 13.178 13.442 11.8221 13.2656L10.5531 13.1005Z" fill="#979797"/>
<path d="M7.48068 22.442C6.30026 22.442 5.34334 23.3989 5.34334 24.5794C5.34334 25.7598 6.30026 26.7167 7.48068 26.7167C8.66109 26.7167 9.61801 25.7598 9.61801 24.5794C9.61801 23.3989 8.66109 22.442 7.48068 22.442Z" fill="#979797"/>
<path d="M21.0171 24.5794C21.0171 23.3989 21.9741 22.442 23.1545 22.442C24.3349 22.442 25.2918 23.3989 25.2918 24.5794C25.2918 25.7598 24.3349 26.7167 23.1545 26.7167C21.9741 26.7167 21.0171 25.7598 21.0171 24.5794Z" fill="#979797"/>
</g>
</g>
</svg>
